<svg width="1200" height="630" viewBox="0 0 1200 630" fill="none" xmlns="http://www.w3.org/2000/svg">
  <defs>
    <linearGradient id="bgGlow" x1="202" y1="48" x2="1038" y2="612" gradientUnits="userSpaceOnUse">
      <stop stop-color="#111111"/>
      <stop offset="1" stop-color="#1f1f1f"/>
    </linearGradient>
    <linearGradient id="brandGlow" x1="190" y1="156" x2="410" y2="410" gradientUnits="userSpaceOnUse">
      <stop stop-color="#c2410c"/>
      <stop offset="1" stop-color="#991b1b"/>
    </linearGradient>
  </defs>
  <rect width="1200" height="630" rx="36" fill="#0B0B0B"/>
  <rect x="36" y="36" width="1128" height="558" rx="28" fill="url(#bgGlow)" stroke="rgba(255,255,255,0.08)"/>
  <circle cx="1050" cy="112" r="220" fill="#991b1b" opacity="0.18"/>
  <circle cx="166" cy="532" r="170" fill="#c2410c" opacity="0.12"/>
  <path d="M720 84H1098" stroke="rgba(255,255,255,0.08)" stroke-width="2"/>
  <path d="M84 490H420" stroke="rgba(255,255,255,0.08)" stroke-width="2"/>
  <rect x="96" y="176" width="196" height="196" rx="48" fill="#111111"/>
  <rect x="96.75" y="176.75" width="194.5" height="194.5" rx="47.25" stroke="rgba(255,255,255,0.1)" stroke-width="1.5"/>
  <path d="M147 226H245L227 249.5H182L240.5 294L221.5 334H138L156 310.5H201L142.5 266L161.5 226H147Z" fill="url(#brandGlow)"/>
  <path d="M226 226L175 334" stroke="#F5F5F4" stroke-width="14" stroke-linecap="round"/>
  <text x="346" y="274" fill="#F8FAFC" font-family="Inter, Arial, sans-serif" font-size="82" font-weight="700" letter-spacing="0.26em">
    ZENIN
  </text>
  <text x="351" y="332" fill="#E5E7EB" font-family="Inter, Arial, sans-serif" font-size="30" font-weight="600" letter-spacing="0.38em">
    GROWTH PARTNERS
  </text>
  <text x="352" y="420" fill="#D1D5DB" font-family="Inter, Arial, sans-serif" font-size="34" font-weight="500">
    Scale operations, support, and back-office execution with confidence.
  </text>
  <text x="352" y="470" fill="#9CA3AF" font-family="Inter, Arial, sans-serif" font-size="28" font-weight="500">
    Premium BPO and business support solutions built for modern growth.
  </text>
</svg>
